<svg data-v-fde0c5aa="" xmlns="http://www.w3.org/2000/svg" viewBox="0 0 300 300" class="iconLeftSlogan"><!----><defs data-v-fde0c5aa=""><!----></defs><rect data-v-fde0c5aa="" fill="#29A7F1" x="0" y="0" width="300px" height="300px" class="logo-background-square"></rect><defs data-v-fde0c5aa=""><!----></defs><g data-v-fde0c5aa="" id="668f3d76-9854-4eb2-bdac-f7dbcedf4c22" fill="#ffffff" transform="matrix(3.3364926897580722,0,0,3.3364926897580722,114.92040449750958,104.71214847156426)"><path d="M2.77 7.36L2.77 7.36L2.77 7.36Q2.28 8.20 1.77 9.16L1.77 9.16L1.77 9.16Q1.26 10.12 0.80 11.05L0.80 11.05L0.80 11.05Q0.34 11.97-0.05 12.79L-0.05 12.79L-0.05 12.79Q-0.43 13.61-0.66 14.15L-0.66 14.15L-0.66 14.15Q-0.80 14.48-0.69 14.73L-0.69 14.73L-0.69 14.73Q-0.59 14.98-0.46 15.18L-0.46 15.18L-0.46 15.18Q-0.27 15.43-0.13 15.60L-0.13 15.60L-0.13 15.60Q0.01 15.76 0.17 15.93L0.17 15.93L0.17 15.93Q0.32 16.09 0.50 16.16L0.50 16.16L0.50 16.16Q0.69 16.24 1.06 16.10L1.06 16.10L1.06 16.10Q1.62 15.90 2.29 15.73L2.29 15.73L2.29 15.73Q2.95 15.55 3.54 15.39L3.54 15.39L3.54 15.39Q3.78 15.34 3.85 15.23L3.85 15.23L3.85 15.23Q3.92 15.12 3.85 14.84L3.85 14.84L3.85 14.84Q3.81 14.60 3.72 14.36L3.72 14.36L3.72 14.36Q3.64 14.11 3.53 13.85L3.53 13.85L3.53 13.85Q3.33 13.40 2.84 13.48L2.84 13.48L2.84 13.48Q2.48 13.55 2.14 13.63L2.14 13.63L2.14 13.63Q1.81 13.71 1.47 13.82L1.47 13.82L1.47 13.82Q2.32 12.21 3.23 10.57L3.23 10.57L3.23 10.57Q4.13 8.93 4.97 7.45L4.97 7.45L4.97 7.45Q5.12 7.18 5.13 6.95L5.13 6.95L5.13 6.95Q5.14 6.72 5.07 6.47L5.07 6.47L5.07 6.47Q5.01 6.27 4.96 6.05L4.96 6.05L4.96 6.05Q4.90 5.82 4.79 5.53L4.79 5.53L4.79 5.53Q4.69 5.29 4.57 5.19L4.57 5.19L4.57 5.19Q4.45 5.10 4.21 5.11L4.21 5.11L4.21 5.11Q3.77 5.14 3.27 5.19L3.27 5.19L3.27 5.19Q2.77 5.24 2.27 5.31L2.27 5.31L2.27 5.31Q1.78 5.38 1.32 5.47L1.32 5.47L1.32 5.47Q0.85 5.57 0.48 5.68L0.48 5.68L0.48 5.68Q0.32 5.75 0.27 5.85L0.27 5.85L0.27 5.85Q0.22 5.94 0.29 6.19L0.29 6.19L0.29 6.19Q0.38 6.44 0.52 6.78L0.52 6.78L0.52 6.78Q0.66 7.11 0.74 7.31L0.74 7.31L0.74 7.31Q0.90 7.56 1.08 7.63L1.08 7.63L1.08 7.63Q1.27 7.70 1.50 7.64L1.50 7.64L1.50 7.64Q1.79 7.56 2.10 7.50L2.10 7.50L2.10 7.50Q2.41 7.45 2.77 7.36ZM5.88 5.84L5.88 5.84L4.82 13.93L4.82 13.93Q4.79 14.29 4.87 14.56L4.87 14.56L4.87 14.56Q4.94 14.83 5.10 15.02L5.10 15.02L5.10 15.02Q5.28 15.27 5.42 15.44L5.42 15.44L5.42 15.44Q5.56 15.60 5.71 15.75L5.71 15.75L5.71 15.75Q5.85 15.89 6.04 15.97L6.04 15.97L6.04 15.97Q6.23 16.04 6.61 15.90L6.61 15.90L6.61 15.90Q7.17 15.75 7.78 15.57L7.78 15.57L7.78 15.57Q8.40 15.39 8.99 15.22L8.99 15.22L8.99 15.22Q9.23 15.15 9.28 15.04L9.28 15.04L9.28 15.04Q9.32 14.94 9.27 14.66L9.27 14.66L9.27 14.66Q9.20 14.41 9.13 14.17L9.13 14.17L9.13 14.17Q9.06 13.93 8.95 13.66L8.95 13.66L8.95 13.66Q8.85 13.43 8.70 13.34L8.70 13.34L8.70 13.34Q8.55 13.26 8.32 13.29L8.32 13.29L8.32 13.29Q7.87 13.33 7.48 13.39L7.48 13.39L7.48 13.39Q7.08 13.45 6.66 13.57L6.66 13.57L6.66 13.57Q6.73 13.20 6.80 12.82L6.80 12.82L6.80 12.82Q6.87 12.43 6.94 12.03L6.94 12.03L6.94 12.03Q7.46 11.87 8.02 11.74L8.02 11.74L8.02 11.74Q8.57 11.61 9.10 11.47L9.10 11.47L9.10 11.47Q9.34 11.40 9.39 11.30L9.39 11.30L9.39 11.30Q9.45 11.20 9.38 10.91L9.38 10.91L9.38 10.91Q9.32 10.65 9.26 10.42L9.26 10.42L9.26 10.42Q9.20 10.18 9.09 9.93L9.09 9.93L9.09 9.93Q8.99 9.69 8.85 9.61L8.85 9.61L8.85 9.61Q8.71 9.53 8.47 9.55L8.47 9.55L8.47 9.55Q8.19 9.56 7.93 9.58L7.93 9.58L7.93 9.58Q7.67 9.60 7.41 9.66L7.41 9.66L7.41 9.66Q7.55 9.03 7.66 8.46L7.66 8.46L7.66 8.46Q7.77 7.88 7.88 7.36L7.88 7.36L7.88 7.36Q8.47 7.25 9.01 7.17L9.01 7.17L9.01 7.17Q9.55 7.08 10.04 7.01L10.04 7.01L10.04 7.01Q10.28 6.97 10.34 6.87L10.34 6.87L10.34 6.87Q10.40 6.76 10.36 6.47L10.36 6.47L10.36 6.47Q10.30 6.22 10.25 6.01L10.25 6.01L10.25 6.01Q10.21 5.80 10.09 5.53L10.09 5.53L10.09 5.53Q9.95 5.03 9.49 5.05L9.49 5.05L9.49 5.05Q8.51 5.11 7.55 5.35L7.55 5.35L7.55 5.35Q6.59 5.59 5.88 5.84ZM11.27 5.84L11.27 5.84L10.21 13.93L10.21 13.93Q10.18 14.29 10.26 14.56L10.26 14.56L10.26 14.56Q10.33 14.83 10.49 15.02L10.49 15.02L10.49 15.02Q10.67 15.27 10.81 15.44L10.81 15.44L10.81 15.44Q10.95 15.60 11.10 15.75L11.10 15.75L11.10 15.75Q11.24 15.89 11.43 15.97L11.43 15.97L11.43 15.97Q11.62 16.04 12.00 15.90L12.00 15.90L12.00 15.90Q12.56 15.75 13.17 15.57L13.17 15.57L13.17 15.57Q13.79 15.39 14.38 15.22L14.38 15.22L14.38 15.22Q14.62 15.15 14.67 15.04L14.67 15.04L14.67 15.04Q14.71 14.94 14.66 14.66L14.66 14.66L14.66 14.66Q14.59 14.41 14.52 14.17L14.52 14.17L14.52 14.17Q14.45 13.93 14.34 13.66L14.34 13.66L14.34 13.66Q14.24 13.43 14.09 13.34L14.09 13.34L14.09 13.34Q13.94 13.26 13.71 13.29L13.71 13.29L13.71 13.29Q13.26 13.33 12.87 13.39L12.87 13.39L12.87 13.39Q12.47 13.45 12.05 13.57L12.05 13.57L12.05 13.57Q12.12 13.20 12.19 12.82L12.19 12.82L12.19 12.82Q12.26 12.43 12.33 12.03L12.33 12.03L12.33 12.03Q12.85 11.87 13.41 11.74L13.41 11.74L13.41 11.74Q13.96 11.61 14.49 11.47L14.49 11.47L14.49 11.47Q14.73 11.40 14.78 11.30L14.78 11.30L14.78 11.30Q14.84 11.20 14.77 10.91L14.77 10.91L14.77 10.91Q14.71 10.65 14.65 10.42L14.65 10.42L14.65 10.42Q14.59 10.18 14.48 9.93L14.48 9.93L14.48 9.93Q14.38 9.69 14.24 9.61L14.24 9.61L14.24 9.61Q14.10 9.53 13.86 9.55L13.86 9.55L13.86 9.55Q13.58 9.56 13.32 9.58L13.32 9.58L13.32 9.58Q13.06 9.60 12.80 9.66L12.80 9.66L12.80 9.66Q12.94 9.03 13.05 8.46L13.05 8.46L13.05 8.46Q13.16 7.88 13.27 7.36L13.27 7.36L13.27 7.36Q13.86 7.25 14.40 7.17L14.40 7.17L14.40 7.17Q14.94 7.08 15.43 7.01L15.43 7.01L15.43 7.01Q15.67 6.97 15.73 6.87L15.73 6.87L15.73 6.87Q15.79 6.76 15.75 6.47L15.75 6.47L15.75 6.47Q15.69 6.22 15.64 6.01L15.64 6.01L15.64 6.01Q15.60 5.80 15.48 5.53L15.48 5.53L15.48 5.53Q15.34 5.03 14.88 5.05L14.88 5.05L14.88 5.05Q13.90 5.11 12.94 5.35L12.94 5.35L12.94 5.35Q11.98 5.59 11.27 5.84ZM21.64 5.88L21.64 5.88L21.64 5.88Q21.42 5.68 21.13 5.51L21.13 5.51L21.13 5.51Q20.83 5.33 20.58 5.25L20.58 5.25L20.58 5.25Q20.33 5.15 20.20 5.22L20.20 5.22L20.20 5.22Q20.08 5.29 20.01 5.60L20.01 5.60L20.01 5.60Q19.91 6.12 19.79 6.86L19.79 6.86L19.79 6.86Q19.67 7.60 19.55 8.44L19.55 8.44L19.55 8.44Q19.43 9.28 19.32 10.18L19.32 10.18L19.32 10.18Q19.21 11.07 19.11 11.90L19.11 11.90L19.11 11.90Q19.01 12.73 18.94 13.43L18.94 13.43L18.94 13.43Q18.87 14.14 18.84 14.62L18.84 14.62L18.84 14.62Q18.82 14.98 18.88 15.18L18.88 15.18L18.88 15.18Q18.94 15.39 19.15 15.54L19.15 15.54L19.15 15.54Q19.35 15.69 19.57 15.79L19.57 15.79L19.57 15.79Q19.80 15.89 20.03 15.99L20.03 15.99L20.03 15.99Q20.27 16.07 20.36 16.00L20.36 16.00L20.36 16.00Q20.44 15.93 20.48 15.69L20.48 15.69L20.48 15.69Q20.57 15.08 20.67 14.32L20.67 14.32L20.67 14.32Q20.78 13.55 20.90 12.73L20.90 12.73L20.90 12.73Q21.03 11.90 21.16 11.05L21.16 11.05L21.16 11.05Q21.29 10.19 21.43 9.40L21.43 9.40L21.43 9.40Q21.56 8.61 21.69 7.91L21.69 7.91L21.69 7.91Q21.81 7.21 21.92 6.69L21.92 6.69L21.92 6.69Q21.98 6.40 21.93 6.24L21.93 6.24L21.93 6.24Q21.88 6.08 21.64 5.88ZM27.99 6.90L27.99 6.90L27.99 6.90Q28.24 6.87 28.28 6.78L28.28 6.78L28.28 6.78Q28.32 6.69 28.27 6.43L28.27 6.43L28.27 6.43Q28.20 6.15 28.08 5.85L28.08 5.85L28.08 5.85Q27.96 5.56 27.79 5.31L27.79 5.31L27.79 5.31Q27.71 5.17 27.59 5.10L27.59 5.10L27.59 5.10Q27.47 5.04 27.23 5.04L27.23 5.04L27.23 5.04Q26.75 5.07 26.14 5.12L26.14 5.12L26.14 5.12Q25.54 5.18 24.91 5.26L24.91 5.26L24.91 5.26Q24.28 5.35 23.67 5.46L23.67 5.46L23.67 5.46Q23.06 5.57 22.58 5.70L22.58 5.70L22.58 5.70Q22.43 5.75 22.37 5.84L22.37 5.84L22.37 5.84Q22.32 5.92 22.40 6.17L22.40 6.17L22.40 6.17Q22.48 6.41 22.62 6.78L22.62 6.78L22.62 6.78Q22.75 7.14 22.92 7.38L22.92 7.38L22.92 7.38Q23.07 7.62 23.20 7.67L23.20 7.67L23.20 7.67Q23.34 7.71 23.55 7.64L23.55 7.64L23.55 7.64Q23.70 7.59 23.93 7.55L23.93 7.55L23.93 7.55Q24.16 7.50 24.40 7.45L24.40 7.45L24.40 7.45Q24.26 8.25 24.11 9.23L24.11 9.23L24.11 9.23Q23.97 10.21 23.84 11.19L23.84 11.19L23.84 11.19Q23.72 12.17 23.62 13.08L23.62 13.08L23.62 13.08Q23.52 13.99 23.48 14.63L23.48 14.63L23.48 14.63Q23.39 15.16 23.62 15.41L23.62 15.41L23.62 15.41Q23.84 15.67 24.23 15.83L24.23 15.83L24.23 15.83Q24.43 15.92 24.59 15.99L24.59 15.99L24.59 15.99Q24.75 16.06 24.87 16.07L24.87 16.07L24.87 16.07Q24.99 16.09 25.06 16.02L25.06 16.02L25.06 16.02Q25.13 15.95 25.14 15.75L25.14 15.75L25.14 15.75Q25.27 14.76 25.43 13.65L25.43 13.65L25.43 13.65Q25.59 12.54 25.77 11.42L25.77 11.42L25.77 11.42Q25.96 10.29 26.14 9.19L26.14 9.19L26.14 9.19Q26.32 8.09 26.49 7.10L26.49 7.10L26.49 7.10Q26.89 7.04 27.28 6.99L27.28 6.99L27.28 6.99Q27.66 6.94 27.99 6.90ZM36.25 12.89L36.25 12.89L36.25 12.89Q35.39 12.54 34.86 13.34L34.86 13.34L34.86 13.34Q34.13 14.49 33.75 14.29L33.75 14.29L33.75 14.29Q33.56 14.21 33.47 13.85L33.47 13.85L33.47 13.85Q33.38 13.48 33.36 12.94L33.36 12.94L33.36 12.94Q33.35 12.40 33.41 11.76L33.41 11.76L33.41 11.76Q33.47 11.12 33.60 10.49L33.60 10.49L33.60 10.49Q33.73 9.90 33.94 9.24L33.94 9.24L33.94 9.24Q34.15 8.58 34.38 8.04L34.38 8.04L34.38 8.04Q34.62 7.49 34.85 7.15L34.85 7.15L34.85 7.15Q35.07 6.82 35.24 6.89L35.24 6.89L35.24 6.89Q35.41 6.97 35.44 7.27L35.44 7.27L35.44 7.27Q35.48 7.57 35.48 7.94L35.48 7.94L35.48 7.94Q35.48 8.05 35.48 8.16L35.48 8.16L35.48 8.16Q35.49 8.27 35.50 8.39L35.50 8.39L35.50 8.39Q35.59 8.97 35.84 9.32L35.84 9.32L35.84 9.32Q36.09 9.66 36.65 9.81L36.65 9.81L36.65 9.81Q36.95 9.90 37.02 9.78L37.02 9.78L37.02 9.78Q37.09 9.66 37.14 9.46L37.14 9.46L37.14 9.46Q37.23 9.04 37.25 8.43L37.25 8.43L37.25 8.43Q37.28 7.81 37.25 7.29L37.25 7.29L37.25 7.29Q37.23 6.85 37.11 6.50L37.11 6.50L37.11 6.50Q36.99 6.15 36.65 5.80L36.65 5.80L36.65 5.80Q36.33 5.52 35.85 5.27L35.85 5.27L35.85 5.27Q35.36 5.03 34.90 4.97L34.90 4.97L34.90 4.97Q34.59 4.94 34.24 5.05L34.24 5.05L34.24 5.05Q33.89 5.17 33.54 5.56L33.54 5.56L33.54 5.56Q33.11 6.06 32.75 6.76L32.75 6.76L32.75 6.76Q32.38 7.45 32.12 8.25L32.12 8.25L32.12 8.25Q31.85 9.06 31.68 9.92L31.68 9.92L31.68 9.92Q31.51 10.78 31.46 11.61L31.46 11.61L31.46 11.61Q31.42 12.45 31.49 13.19L31.49 13.19L31.49 13.19Q31.56 13.93 31.77 14.50L31.77 14.50L31.77 14.50Q31.89 14.90 32.14 15.19L32.14 15.19L32.14 15.19Q32.38 15.48 32.62 15.64L32.62 15.64L32.62 15.64Q32.90 15.78 33.26 15.94L33.26 15.94L33.26 15.94Q33.61 16.10 34.05 16.16L34.05 16.16L34.05 16.16Q34.47 16.21 34.89 16.05L34.89 16.05L34.89 16.05Q35.32 15.89 35.59 15.62L35.59 15.62L35.59 15.62Q35.84 15.34 36.09 14.92L36.09 14.92L36.09 14.92Q36.34 14.50 36.50 14.01L36.50 14.01L36.50 14.01Q36.64 13.59 36.62 13.31L36.62 13.31L36.62 13.31Q36.60 13.03 36.25 12.89ZM42.64 5.92L42.64 5.92L42.64 5.92Q42.36 5.63 41.94 5.43L41.94 5.43L41.94 5.43Q41.51 5.22 41.05 5.12L41.05 5.12L41.05 5.12Q40.70 5.05 40.30 5.20L40.30 5.20L40.30 5.20Q39.90 5.35 39.62 5.64L39.62 5.64L39.62 5.64Q38.95 6.38 38.50 7.48L38.50 7.48L38.50 7.48Q38.05 8.58 37.84 9.78L37.84 9.78L37.84 9.78Q37.62 10.98 37.65 12.15L37.65 12.15L37.65 12.15Q37.67 13.33 37.97 14.25L37.97 14.25L37.97 14.25Q38.09 14.64 38.33 14.95L38.33 14.95L38.33 14.95Q38.57 15.26 38.81 15.46L38.81 15.46L38.81 15.46Q39.12 15.69 39.49 15.81L39.49 15.81L39.49 15.81Q39.86 15.93 40.21 15.99L40.21 15.99L40.21 15.99Q40.74 16.07 41.15 15.93L41.15 15.93L41.15 15.93Q41.57 15.78 41.93 15.34L41.93 15.34L41.93 15.34Q42.45 14.63 42.78 13.64L42.78 13.64L42.78 13.64Q43.12 12.66 43.30 11.59L43.30 11.59L43.30 11.59Q43.47 10.51 43.48 9.46L43.48 9.46L43.48 9.46Q43.50 8.40 43.37 7.53L43.37 7.53L43.37 7.53Q43.29 7.04 43.13 6.65L43.13 6.65L43.13 6.65Q42.97 6.26 42.64 5.92ZM41.34 7.03L41.34 7.03L41.34 7.03Q41.51 7.10 41.59 7.52L41.59 7.52L41.59 7.52Q41.68 7.94 41.69 8.53L41.69 8.53L41.69 8.53Q41.69 9.11 41.64 9.79L41.64 9.79L41.64 9.79Q41.58 10.46 41.47 11.05L41.47 11.05L41.47 11.05Q41.34 11.79 41.16 12.42L41.16 12.42L41.16 12.42Q40.98 13.05 40.77 13.49L40.77 13.49L40.77 13.49Q40.57 13.93 40.36 14.14L40.36 14.14L40.36 14.14Q40.14 14.35 39.96 14.25L39.96 14.25L39.96 14.25Q39.75 14.15 39.65 13.75L39.65 13.75L39.65 13.75Q39.55 13.34 39.54 12.78L39.54 12.78L39.54 12.78Q39.52 12.21 39.59 11.55L39.59 11.55L39.59 11.55Q39.65 10.89 39.77 10.30L39.77 10.30L39.77 10.30Q39.90 9.73 40.10 9.11L40.10 9.11L40.10 9.11Q40.29 8.50 40.51 8.02L40.51 8.02L40.51 8.02Q40.73 7.53 40.95 7.25L40.95 7.25L40.95 7.25Q41.17 6.96 41.34 7.03Z"></path></g><defs data-v-fde0c5aa=""><!----></defs><g data-v-fde0c5aa="" id="b2d33d72-0c84-4fa7-a356-32ca70d3611b" stroke="none" fill="#ffffff" transform="matrix(0.7855711823123795,0,0,0.7855711823123795,29.80092949586762,110.79489039945089)"><g clip-rule="evenodd"><path d="M12.983 10.59l17.018 88.223-5.872-59.049 29.021-1.892-.054-9.883L64.549 1 53.622 18.977z"></path><path d="M59.389 54.548l5.16-53.541-8.74 39.716-19.612 1.045 1.57 20.462-7.766 36.583 12.057-39.899z"></path><path d="M62.8 67.182l.549-10.453-15.979 3.755-.032 11.797-17.337 26.532 21.68-27.616zM65.711 62.394l14.841-4.731 1.509-12.532-15.899 2.095zM72.07 44.502l10.988-1.417 1.581-10.278-8.079-.373L64.549 1l8.43 30.967z"></path><path d="M87.413 31.294l1.256-9.506-9.544-2.694L64.549 1l14.483 22.437-.422 7z"></path></g></g><defs data-v-fde0c5aa=""><!----></defs><g data-v-fde0c5aa="" id="dbed3e0d-2b75-4099-933e-032bf64dadd1" fill="#ffffff" transform="matrix(0.6162013879908655,0,0,0.6162013879908655,112.22258161220674,166.95227127396905)"><path d="M0.39 3.64L0.38 3.08L2.55 3.08L8.29 10.48L8.29 4.14L8.29 4.14Q8.29 3.81 8.13 3.72L8.13 3.72L8.13 3.72Q7.98 3.64 7.52 3.64L7.52 3.64L7.03 3.64L7.05 3.08L10.04 3.08L10.04 3.64L9.71 3.64L9.71 3.64Q9.25 3.64 9.10 3.75L9.10 3.75L9.10 3.75Q8.95 3.86 8.95 4.25L8.95 4.25L8.95 12.32L8.95 12.47L8.95 12.47Q8.95 12.52 8.93 12.57L8.93 12.57L8.93 12.57Q8.92 12.61 8.89 12.64L8.89 12.64L8.89 12.64Q8.87 12.65 8.82 12.65L8.82 12.65L8.63 12.65L8.57 12.65L8.54 12.65L8.51 12.64L8.51 12.64Q8.48 12.64 8.47 12.63L8.47 12.63L8.47 12.63Q8.46 12.61 8.46 12.60L8.46 12.60L8.46 12.60Q8.46 12.58 8.44 12.57L8.44 12.57L8.44 12.57Q8.42 12.54 8.39 12.50L8.39 12.50L8.39 12.50Q8.37 12.48 8.35 12.45L8.35 12.45L8.35 12.45Q8.33 12.41 8.32 12.40L8.32 12.40L2.21 4.56L2.28 11.22L2.28 11.22Q2.28 11.67 2.45 11.77L2.45 11.77L2.45 11.77Q2.60 11.87 3.32 11.87L3.32 11.87L3.55 11.87L3.55 12.41L0.62 12.41L0.62 11.87L1.04 11.87L1.04 11.87Q1.42 11.87 1.52 11.76L1.52 11.76L1.52 11.76Q1.62 11.66 1.63 11.25L1.63 11.25L1.63 3.80L1.48 3.64L0.39 3.64ZM17.79 3.64L17.77 3.08L24.99 3.08L24.99 3.08Q25.00 4.14 25.05 5.28L25.05 5.28L24.51 5.30L24.51 5.30Q24.49 4.66 24.44 4.25L24.44 4.25L24.44 4.25Q24.40 3.89 24.34 3.80L24.34 3.80L24.34 3.80Q24.29 3.71 24.17 3.69L24.17 3.69L24.17 3.69Q24.08 3.68 23.49 3.68L23.49 3.68L21.11 3.68L21.11 3.68Q20.56 3.68 20.42 3.77L20.42 3.77L20.42 3.77Q20.30 3.86 20.30 4.33L20.30 4.33L20.30 6.28L20.30 6.28Q20.30 6.69 20.35 6.76L20.35 6.76L20.35 6.76Q20.42 6.84 20.76 6.84L20.76 6.84L22.87 6.84L22.87 6.84Q23.24 6.84 23.32 6.73L23.32 6.73L23.32 6.73Q23.40 6.63 23.41 6.14L23.41 6.14L23.41 5.61L23.92 5.63L23.92 8.97L23.41 8.97L23.41 8.24L23.41 8.24Q23.41 7.66 23.33 7.57L23.33 7.57L23.33 7.57Q23.25 7.46 22.90 7.46L22.90 7.46L20.80 7.46L20.80 7.46Q20.47 7.46 20.38 7.54L20.38 7.54L20.38 7.54Q20.30 7.63 20.30 7.89L20.30 7.89L20.30 11.20L20.30 11.20Q20.30 11.57 20.38 11.67L20.38 11.67L20.38 11.67Q20.47 11.77 20.74 11.77L20.74 11.77L20.74 11.77Q23.66 11.75 24.19 11.69L24.19 11.69L24.19 11.69Q24.71 11.63 24.79 11.38L24.79 11.38L24.79 11.36L24.80 11.35L25.03 10.17L25.50 10.25L25.16 12.41L18.05 12.41L18.05 11.87L18.42 11.87L18.42 11.87Q18.98 11.87 19.07 11.80L19.07 11.80L19.07 11.80Q19.16 11.72 19.16 11.33L19.16 11.33L19.16 4.24L19.16 4.24Q19.16 3.82 19.01 3.73L19.01 3.73L19.01 3.73Q18.84 3.64 18.18 3.64L18.18 3.64L17.79 3.64ZM33.76 3.64L33.52 3.64L33.52 3.08L36.63 3.08L36.61 3.64L36.31 3.64L36.31 3.64Q35.48 3.64 35.48 3.94L35.48 3.94L35.48 3.94Q35.48 4.03 35.51 4.09L35.51 4.09L37.93 10.76L40.24 4.85L40.14 4.57L40.14 4.57Q40.11 4.52 40.09 4.44L40.09 4.44L40.09 4.44Q40.07 4.36 40.05 4.31L40.05 4.31L40.05 4.31Q40.03 4.25 40.02 4.22L40.02 4.22L40.02 4.22Q39.99 4.16 39.89 3.96L39.89 3.96L39.89 3.96Q39.81 3.80 39.70 3.71L39.70 3.71L39.70 3.71Q39.61 3.64 39.44 3.64L39.44 3.64L38.76 3.64L38.76 3.08L42.09 3.08L42.09 3.64L41.35 3.64L41.35 3.64Q41.12 3.64 41.06 3.68L41.06 3.68L41.06 3.68Q40.99 3.72 40.98 3.86L40.98 3.86L40.98 3.86Q40.98 4.00 41.23 4.76L41.23 4.76L43.28 10.72L45.77 4.18L45.77 4.18Q45.83 4.01 45.83 3.94L45.83 3.94L45.83 3.94Q45.83 3.75 45.66 3.69L45.66 3.69L45.66 3.69Q45.50 3.64 45.14 3.64L45.14 3.64L44.78 3.64L44.78 3.08L47.17 3.08L47.19 3.64L47.02 3.64L47.02 3.64Q46.67 3.64 46.57 3.77L46.57 3.77L46.57 3.77Q46.45 3.96 46.20 4.60L46.20 4.60L43.11 12.64L42.88 12.64L40.50 5.64L37.78 12.63L37.56 12.63L34.58 4.52L34.58 4.52Q34.37 3.96 34.21 3.79L34.21 3.79L34.21 3.79Q34.05 3.63 33.76 3.64L33.76 3.64ZM64.87 3.64L64.63 3.64L64.63 3.08L67.74 3.08L67.72 3.64L67.42 3.64L67.42 3.64Q66.59 3.64 66.59 3.94L66.59 3.94L66.59 3.94Q66.59 4.03 66.62 4.09L66.62 4.09L69.04 10.76L71.35 4.85L71.25 4.57L71.25 4.57Q71.22 4.52 71.20 4.44L71.20 4.44L71.20 4.44Q71.18 4.36 71.16 4.31L71.16 4.31L71.16 4.31Q71.14 4.25 71.13 4.22L71.13 4.22L71.13 4.22Q71.10 4.16 71.00 3.96L71.00 3.96L71.00 3.96Q70.92 3.80 70.81 3.71L70.81 3.71L70.81 3.71Q70.72 3.64 70.55 3.64L70.55 3.64L69.87 3.64L69.87 3.08L73.20 3.08L73.20 3.64L72.46 3.64L72.46 3.64Q72.23 3.64 72.17 3.68L72.17 3.68L72.17 3.68Q72.10 3.72 72.10 3.86L72.10 3.86L72.10 3.86Q72.09 4.00 72.34 4.76L72.34 4.76L74.39 10.72L76.88 4.18L76.88 4.18Q76.94 4.01 76.94 3.94L76.94 3.94L76.94 3.94Q76.94 3.75 76.77 3.69L76.77 3.69L76.77 3.69Q76.61 3.64 76.25 3.64L76.25 3.64L75.89 3.64L75.89 3.08L78.29 3.08L78.30 3.64L78.13 3.64L78.13 3.64Q77.78 3.64 77.68 3.77L77.68 3.77L77.68 3.77Q77.56 3.96 77.31 4.60L77.31 4.60L74.22 12.64L73.99 12.64L71.61 5.64L68.89 12.63L68.67 12.63L65.69 4.52L65.69 4.52Q65.48 3.96 65.32 3.79L65.32 3.79L65.32 3.79Q65.16 3.63 64.87 3.64L64.87 3.64ZM86.41 7.83L86.41 7.83L86.41 7.83Q86.41 6.62 86.82 5.68L86.82 5.68L86.82 5.68Q87.23 4.72 87.92 4.12L87.92 4.12L87.92 4.12Q88.61 3.51 89.48 3.19L89.48 3.19L89.48 3.19Q90.32 2.88 91.27 2.88L91.27 2.88L91.27 2.88Q92.52 2.88 93.58 3.40L93.58 3.40L93.58 3.40Q94.66 3.93 95.37 5.07L95.37 5.07L95.37 5.07Q96.07 6.17 96.07 7.75L96.07 7.75L96.07 7.75Q96.07 8.70 95.76 9.54L95.76 9.54L95.76 9.54Q95.46 10.38 94.85 11.10L94.85 11.10L94.85 11.10Q94.25 11.81 93.31 12.22L93.31 12.22L93.31 12.22Q92.35 12.63 91.16 12.64L91.16 12.64L91.16 12.64Q90.02 12.64 89.09 12.23L89.09 12.23L89.09 12.23Q88.15 11.83 87.59 11.14L87.59 11.14L87.59 11.14Q87.01 10.45 86.72 9.60L86.72 9.60L86.72 9.60Q86.41 8.72 86.41 7.83ZM87.67 7.38L87.67 7.38L87.67 7.38Q87.67 8.52 88.10 9.60L88.10 9.60L88.10 9.60Q88.50 10.64 89.43 11.33L89.43 11.33L89.43 11.33Q90.34 12.03 91.53 12.04L91.53 12.04L91.53 12.04Q92.91 12.04 93.84 11.01L93.84 11.01L93.84 11.01Q94.79 9.97 94.79 8.10L94.79 8.10L94.79 8.10Q94.79 5.99 93.63 4.72L93.63 4.72L93.63 4.72Q92.48 3.46 90.97 3.45L90.97 3.45L90.97 3.45Q90.45 3.45 89.91 3.65L89.91 3.65L89.91 3.65Q89.37 3.85 88.86 4.25L88.86 4.25L88.86 4.25Q88.31 4.68 87.99 5.48L87.99 5.48L87.99 5.48Q87.67 6.27 87.67 7.38ZM104.52 3.64L104.13 3.64L104.15 3.08L107.37 3.08L107.37 3.08Q108.50 3.08 109.10 3.21L109.10 3.21L109.10 3.21Q109.74 3.37 110.21 3.75L110.21 3.75L110.21 3.75Q111.21 4.57 111.21 5.71L111.21 5.71L111.21 5.71Q111.21 6.43 110.74 7.04L110.74 7.04L110.74 7.04Q110.25 7.66 109.22 7.92L109.22 7.92L111.90 11.49L111.90 11.49Q112.21 11.87 112.51 11.87L112.51 11.87L113.11 11.87L113.13 12.41L111.10 12.41L108.11 8.10L107.94 8.10L107.94 8.10Q107.90 8.10 107.84 8.11L107.84 8.11L107.84 8.11Q107.79 8.11 107.78 8.11L107.78 8.11L107.78 8.11Q106.89 8.11 106.50 8.03L106.50 8.03L106.50 11.46L106.50 11.46Q106.50 11.76 106.64 11.81L106.64 11.81L106.64 11.81Q106.76 11.87 107.47 11.87L107.47 11.87L108.18 11.87L108.15 12.41L104.43 12.41L104.43 11.87L104.75 11.87L104.75 11.87Q105.21 11.87 105.28 11.81L105.28 11.81L105.28 11.81Q105.36 11.74 105.36 11.46L105.36 11.46L105.36 4.14L105.36 4.14Q105.36 3.82 105.17 3.73L105.17 3.73L105.17 3.73Q104.95 3.64 104.52 3.64L104.52 3.64ZM106.50 4.28L106.50 7.57L106.50 7.57Q106.68 7.70 107.39 7.71L107.39 7.71L107.39 7.71Q108.66 7.71 109.25 7.27L109.25 7.27L109.25 7.27Q109.83 6.84 109.83 5.92L109.83 5.92L109.83 5.92Q109.83 4.92 109.06 4.27L109.06 4.27L109.06 4.27Q108.30 3.64 106.92 3.64L106.92 3.64L106.92 3.64Q106.67 3.64 106.59 3.75L106.59 3.75L106.59 3.75Q106.50 3.84 106.50 4.28L106.50 4.28ZM121.38 3.64L120.89 3.64L120.90 3.08L124.49 3.08L124.49 3.64L123.85 3.64L123.85 3.64Q123.48 3.64 123.36 3.72L123.36 3.72L123.36 3.72Q123.25 3.80 123.25 4.16L123.25 4.16L123.25 11.22L123.25 11.22Q123.25 11.57 123.34 11.67L123.34 11.67L123.34 11.67Q123.42 11.77 123.72 11.77L123.72 11.77L123.72 11.77Q126.59 11.74 127.24 11.63L127.24 11.63L127.24 11.63Q127.46 11.61 127.54 11.39L127.54 11.39L127.54 11.39Q127.62 11.17 127.82 10.05L127.82 10.05L128.31 10.08L127.85 12.41L121.08 12.41L121.07 11.87L121.46 11.87L121.46 11.87Q121.97 11.87 122.04 11.80L122.04 11.80L122.04 11.80Q122.12 11.72 122.12 11.33L122.12 11.33L122.12 4.09L122.12 4.09Q122.12 3.80 121.97 3.72L121.97 3.72L121.97 3.72Q121.82 3.64 121.38 3.64L121.38 3.64ZM136.08 3.64L136.04 3.08L139.82 3.08L139.82 3.08Q141.14 3.08 142.01 3.19L142.01 3.19L142.01 3.19Q142.83 3.29 143.52 3.69L143.52 3.69L143.52 3.69Q144.47 4.27 144.98 5.24L144.98 5.24L144.98 5.24Q145.47 6.21 145.47 7.39L145.47 7.39L145.47 7.39Q145.47 8.05 145.33 8.65L145.33 8.65L145.33 8.65Q145.17 9.29 144.78 9.98L144.78 9.98L144.78 9.98Q144.35 10.73 143.79 11.21L143.79 11.21L143.79 11.21Q143.16 11.76 142.19 12.08L142.19 12.08L142.19 12.08Q141.18 12.41 139.91 12.41L139.91 12.41L136.29 12.41L136.28 11.87L136.66 11.87L136.66 11.87Q137.18 11.87 137.28 11.79L137.28 11.79L137.28 11.79Q137.39 11.70 137.39 11.25L137.39 11.25L137.39 4.14L137.39 4.14Q137.39 3.77 137.29 3.71L137.29 3.71L137.29 3.71Q137.18 3.64 136.67 3.64L136.67 3.64L136.08 3.64ZM138.52 4.39L138.52 11.22L138.52 11.22Q138.52 11.67 138.69 11.77L138.69 11.77L138.69 11.77Q138.84 11.87 139.71 11.87L139.71 11.87L139.71 11.87Q140.77 11.87 141.56 11.61L141.56 11.61L141.56 11.61Q142.41 11.35 142.85 10.99L142.85 10.99L142.85 10.99Q143.34 10.58 143.65 10.05L143.65 10.05L143.65 10.05Q143.95 9.52 144.08 8.96L144.08 8.96L144.08 8.96Q144.20 8.41 144.20 7.82L144.20 7.82L144.20 7.82Q144.20 7.03 143.94 6.34L143.94 6.34L143.94 6.34Q143.67 5.65 143.14 5.05L143.14 5.05L143.14 5.05Q142.61 4.46 141.70 4.09L141.70 4.09L141.70 4.09Q140.78 3.73 139.62 3.73L139.62 3.73L139.10 3.73L139.10 3.73Q138.74 3.73 138.63 3.85L138.63 3.85L138.63 3.85Q138.52 3.99 138.52 4.39L138.52 4.39ZM163.39 7.83L163.39 7.83L163.39 7.83Q163.39 6.62 163.80 5.68L163.80 5.68L163.80 5.68Q164.21 4.72 164.90 4.12L164.90 4.12L164.90 4.12Q165.59 3.51 166.46 3.19L166.46 3.19L166.46 3.19Q167.30 2.88 168.25 2.88L168.25 2.88L168.25 2.88Q169.50 2.88 170.56 3.40L170.56 3.40L170.56 3.40Q171.64 3.93 172.35 5.07L172.35 5.07L172.35 5.07Q173.04 6.17 173.05 7.75L173.05 7.75L173.05 7.75Q173.05 8.70 172.74 9.54L172.74 9.54L172.74 9.54Q172.44 10.38 171.83 11.10L171.83 11.10L171.83 11.10Q171.23 11.81 170.29 12.22L170.29 12.22L170.29 12.22Q169.33 12.63 168.14 12.64L168.14 12.64L168.14 12.64Q167.00 12.64 166.07 12.23L166.07 12.23L166.07 12.23Q165.13 11.83 164.57 11.14L164.57 11.14L164.57 11.14Q163.99 10.45 163.70 9.60L163.70 9.60L163.70 9.60Q163.39 8.72 163.39 7.83ZM164.65 7.38L164.65 7.38L164.65 7.38Q164.65 8.52 165.08 9.60L165.08 9.60L165.08 9.60Q165.48 10.64 166.41 11.33L166.41 11.33L166.41 11.33Q167.32 12.03 168.51 12.04L168.51 12.04L168.51 12.04Q169.89 12.04 170.82 11.01L170.82 11.01L170.82 11.01Q171.77 9.97 171.77 8.10L171.77 8.10L171.77 8.10Q171.77 5.99 170.61 4.72L170.61 4.72L170.61 4.72Q169.46 3.46 167.95 3.45L167.95 3.45L167.95 3.45Q167.43 3.45 166.89 3.65L166.89 3.65L166.89 3.65Q166.35 3.85 165.84 4.25L165.84 4.25L165.84 4.25Q165.29 4.68 164.97 5.48L164.97 5.48L164.97 5.48Q164.65 6.27 164.65 7.38ZM181.50 3.64L181.11 3.64L181.13 3.08L184.34 3.08L184.34 3.08Q185.48 3.08 186.08 3.21L186.08 3.21L186.08 3.21Q186.72 3.37 187.19 3.75L187.19 3.75L187.19 3.75Q188.19 4.57 188.19 5.71L188.19 5.71L188.19 5.71Q188.19 6.43 187.72 7.04L187.72 7.04L187.72 7.04Q187.23 7.66 186.20 7.92L186.20 7.92L188.88 11.49L188.88 11.49Q189.19 11.87 189.49 11.87L189.49 11.87L190.09 11.87L190.11 12.41L188.08 12.41L185.09 8.10L184.92 8.10L184.92 8.10Q184.88 8.10 184.82 8.11L184.82 8.11L184.82 8.11Q184.77 8.11 184.75 8.11L184.75 8.11L184.75 8.11Q183.87 8.11 183.48 8.03L183.48 8.03L183.48 11.46L183.48 11.46Q183.48 11.76 183.62 11.81L183.62 11.81L183.62 11.81Q183.74 11.87 184.45 11.87L184.45 11.87L185.16 11.87L185.13 12.41L181.41 12.41L181.41 11.87L181.73 11.87L181.73 11.87Q182.19 11.87 182.26 11.81L182.26 11.81L182.26 11.81Q182.34 11.74 182.34 11.46L182.34 11.46L182.34 4.14L182.34 4.14Q182.34 3.82 182.15 3.73L182.15 3.73L182.15 3.73Q181.92 3.64 181.50 3.64L181.50 3.64ZM183.48 4.28L183.48 7.57L183.48 7.57Q183.66 7.70 184.37 7.71L184.37 7.71L184.37 7.71Q185.64 7.71 186.22 7.27L186.22 7.27L186.22 7.27Q186.81 6.84 186.81 5.92L186.81 5.92L186.81 5.92Q186.81 4.92 186.04 4.27L186.04 4.27L186.04 4.27Q185.28 3.64 183.90 3.64L183.90 3.64L183.90 3.64Q183.65 3.64 183.57 3.75L183.57 3.75L183.57 3.75Q183.48 3.84 183.48 4.28L183.48 4.28ZM197.91 3.64L197.87 3.08L201.65 3.08L201.65 3.08Q202.97 3.08 203.83 3.19L203.83 3.19L203.83 3.19Q204.65 3.29 205.34 3.69L205.34 3.69L205.34 3.69Q206.29 4.27 206.80 5.24L206.80 5.24L206.80 5.24Q207.29 6.21 207.29 7.39L207.29 7.39L207.29 7.39Q207.29 8.05 207.15 8.65L207.15 8.65L207.15 8.65Q206.99 9.29 206.60 9.98L206.60 9.98L206.60 9.98Q206.17 10.73 205.61 11.21L205.61 11.21L205.61 11.21Q204.98 11.76 204.01 12.08L204.01 12.08L204.01 12.08Q203.01 12.41 201.74 12.41L201.74 12.41L198.12 12.41L198.11 11.87L198.48 11.87L198.48 11.87Q199.00 11.87 199.10 11.79L199.10 11.79L199.10 11.79Q199.21 11.70 199.21 11.25L199.21 11.25L199.21 4.14L199.21 4.14Q199.21 3.77 199.12 3.71L199.12 3.71L199.12 3.71Q199.01 3.64 198.50 3.64L198.50 3.64L197.91 3.64ZM200.35 4.39L200.35 11.22L200.35 11.22Q200.35 11.67 200.51 11.77L200.51 11.77L200.51 11.77Q200.67 11.87 201.54 11.87L201.54 11.87L201.54 11.87Q202.59 11.87 203.38 11.61L203.38 11.61L203.38 11.61Q204.24 11.35 204.67 10.99L204.67 10.99L204.67 10.99Q205.17 10.58 205.47 10.05L205.47 10.05L205.47 10.05Q205.78 9.52 205.91 8.96L205.91 8.96L205.91 8.96Q206.03 8.41 206.03 7.82L206.03 7.82L206.03 7.82Q206.03 7.03 205.76 6.34L205.76 6.34L205.76 6.34Q205.50 5.65 204.97 5.05L204.97 5.05L204.97 5.05Q204.44 4.46 203.53 4.09L203.53 4.09L203.53 4.09Q202.60 3.73 201.44 3.73L201.44 3.73L200.92 3.73L200.92 3.73Q200.56 3.73 200.46 3.85L200.46 3.85L200.46 3.85Q200.35 3.99 200.35 4.39L200.35 4.39ZM215.28 3.64L215.26 3.08L222.48 3.08L222.48 3.08Q222.49 4.14 222.54 5.28L222.54 5.28L222.00 5.30L222.00 5.30Q221.98 4.66 221.93 4.25L221.93 4.25L221.93 4.25Q221.89 3.89 221.83 3.80L221.83 3.80L221.83 3.80Q221.78 3.71 221.66 3.69L221.66 3.69L221.66 3.69Q221.57 3.68 220.98 3.68L220.98 3.68L218.60 3.68L218.60 3.68Q218.05 3.68 217.91 3.77L217.91 3.77L217.91 3.77Q217.79 3.86 217.79 4.33L217.79 4.33L217.79 6.28L217.79 6.28Q217.79 6.69 217.84 6.76L217.84 6.76L217.84 6.76Q217.91 6.84 218.25 6.84L218.25 6.84L220.36 6.84L220.36 6.84Q220.73 6.84 220.81 6.73L220.81 6.73L220.81 6.73Q220.89 6.63 220.90 6.14L220.90 6.14L220.90 5.61L221.41 5.63L221.41 8.97L220.90 8.97L220.90 8.24L220.90 8.24Q220.90 7.66 220.82 7.57L220.82 7.57L220.82 7.57Q220.74 7.46 220.39 7.46L220.39 7.46L218.29 7.46L218.29 7.46Q217.96 7.46 217.87 7.54L217.87 7.54L217.87 7.54Q217.79 7.63 217.79 7.89L217.79 7.89L217.79 11.20L217.79 11.20Q217.79 11.57 217.87 11.67L217.87 11.67L217.87 11.67Q217.96 11.77 218.23 11.77L218.23 11.77L218.23 11.77Q221.15 11.75 221.68 11.69L221.68 11.69L221.68 11.69Q222.20 11.63 222.28 11.38L222.28 11.38L222.28 11.36L222.29 11.35L222.52 10.17L223.00 10.25L222.65 12.41L215.54 12.41L215.54 11.87L215.91 11.87L215.91 11.87Q216.47 11.87 216.56 11.80L216.56 11.80L216.56 11.80Q216.65 11.72 216.65 11.33L216.65 11.33L216.65 4.24L216.65 4.24Q216.65 3.82 216.50 3.73L216.50 3.73L216.50 3.73Q216.33 3.64 215.67 3.64L215.67 3.64L215.28 3.64ZM231.21 3.64L230.82 3.64L230.83 3.08L234.05 3.08L234.05 3.08Q235.18 3.08 235.79 3.21L235.79 3.21L235.79 3.21Q236.43 3.37 236.89 3.75L236.89 3.75L236.89 3.75Q237.90 4.57 237.90 5.71L237.90 5.71L237.90 5.71Q237.90 6.43 237.43 7.04L237.43 7.04L237.43 7.04Q236.93 7.66 235.90 7.92L235.90 7.92L238.59 11.49L238.59 11.49Q238.90 11.87 239.19 11.87L239.19 11.87L239.79 11.87L239.82 12.41L237.79 12.41L234.79 8.10L234.62 8.10L234.62 8.10Q234.58 8.10 234.53 8.11L234.53 8.11L234.53 8.11Q234.47 8.11 234.46 8.11L234.46 8.11L234.46 8.11Q233.58 8.11 233.18 8.03L233.18 8.03L233.18 11.46L233.18 11.46Q233.18 11.76 233.32 11.81L233.32 11.81L233.32 11.81Q233.45 11.87 234.15 11.87L234.15 11.87L234.86 11.87L234.83 12.41L231.11 12.41L231.11 11.87L231.43 11.87L231.43 11.87Q231.90 11.87 231.96 11.81L231.96 11.81L231.96 11.81Q232.05 11.74 232.05 11.46L232.05 11.46L232.05 4.14L232.05 4.14Q232.05 3.82 231.85 3.73L231.85 3.73L231.85 3.73Q231.63 3.64 231.21 3.64L231.21 3.64ZM233.18 4.28L233.18 7.57L233.18 7.57Q233.37 7.70 234.08 7.71L234.08 7.71L234.08 7.71Q235.35 7.71 235.93 7.27L235.93 7.27L235.93 7.27Q236.52 6.84 236.52 5.92L236.52 5.92L236.52 5.92Q236.52 4.92 235.74 4.27L235.74 4.27L235.74 4.27Q234.99 3.64 233.60 3.64L233.60 3.64L233.60 3.64Q233.35 3.64 233.27 3.75L233.27 3.75L233.27 3.75Q233.19 3.84 233.18 4.28L233.18 4.28Z"></path></g></svg>